<svg width="225" height="70" viewBox="0 0 225 70" fill="none" xmlns="http://www.w3.org/2000/svg">
<path fill-rule="evenodd" clip-rule="evenodd" d="M71.5 1H1V69H71.5L71.5 57H72.5L72.5 69V70H71.5H1V70.0036H0V0.00361633H0.5V0H72.5V1V14H71.5V1ZM21.9365 22.0844L22.5 21L23.0635 22.0844L32 39.2828L40.9365 22.0844L41.5 21L42.0635 22.0844L56.5688 50L57.0885 51H55.9615H38.0885H36.9615H27.0385H25.9115H8.03849H6.91154L7.43116 50L21.9365 22.0844ZM22.5 23.1688L31.4365 40.3672L26.4312 50H8.5581L22.5 23.1688ZM32 41.4516L27.5581 50H36.4419L32 41.4516ZM32.5635 40.3672L37.5688 50H55.4419L41.5 23.1688L32.5635 40.3672ZM59.56 29.14L61.12 29.38V41.82L59.46 42.02V43H66V42.02L63.26 41.8V37.4C63.3533 37.4133 63.6 37.4333 64 37.46C64.4 37.4733 64.7933 37.48 65.18 37.48C66.3133 37.48 67.3133 37.2733 68.18 36.86C69.06 36.4467 69.7467 35.8467 70.24 35.06C70.7333 34.2733 70.98 33.3467 70.98 32.28C70.98 30.8533 70.58 29.7867 69.78 29.08C68.98 28.3733 67.6133 28.0133 65.68 28C65.04 28 64.36 28.0267 63.64 28.08C63.1733 28.12 62.7 28.14 62.22 28.14H59.56V29.14ZM65.18 36.4C64.2733 36.4 63.6333 36.3667 63.26 36.3V29.2C63.3533 29.2 63.5467 29.1867 63.84 29.16C64.32 29.1067 64.7733 29.08 65.2 29.08C66.4133 29.08 67.3067 29.3333 67.88 29.84C68.4533 30.3333 68.74 31.1533 68.74 32.3C68.74 33.7533 68.4067 34.8 67.74 35.44C67.0867 36.08 66.2333 36.4 65.18 36.4ZM74.0683 41.82L72.4083 42.02V43H78.1883V42.02L76.2083 41.82V36.46C76.4749 36.4733 77.3216 36.48 78.7483 36.48C79.0949 36.6533 79.4416 37.0533 79.7883 37.68C80.1483 38.2933 80.5683 39.1267 81.0483 40.18C81.4883 41.14 81.8416 41.8533 82.1083 42.32C82.3749 42.7733 82.6149 43 82.8283 43H85.5883V42.02L84.8083 41.82C84.6083 41.78 84.395 41.5867 84.1683 41.24C83.9549 40.8933 83.6416 40.3467 83.2283 39.6C82.6949 38.6133 82.2416 37.8467 81.8683 37.3C81.5083 36.74 81.1149 36.3467 80.6883 36.12C81.6083 35.84 82.3283 35.3067 82.8483 34.52C83.3816 33.7333 83.6483 32.8667 83.6483 31.92C83.6483 30.56 83.2283 29.5667 82.3883 28.94C81.5616 28.3 80.1683 27.98 78.2083 27.98C77.8349 27.98 77.3149 28.0067 76.6483 28.06C76.0083 28.1133 75.5016 28.14 75.1283 28.14H72.5083V29.12L74.0683 29.38V41.82ZM80.6083 34.56C80.115 35.12 79.4416 35.4 78.5883 35.4H77.4483C76.8216 35.4 76.4083 35.3933 76.2083 35.38V29.18C76.2883 29.18 76.4616 29.1667 76.7283 29.14C77.1549 29.0867 77.5816 29.06 78.0083 29.06C79.2349 29.06 80.0949 29.32 80.5883 29.84C81.0949 30.3467 81.3483 31.0867 81.3483 32.06C81.3483 33.1667 81.1016 34 80.6083 34.56ZM89.0903 42.28C90.037 42.9067 91.1903 43.22 92.5503 43.22C93.8303 43.22 94.9836 42.9 96.0103 42.26C97.0503 41.6067 97.8636 40.6933 98.4503 39.52C99.0503 38.3333 99.3503 36.96 99.3503 35.4C99.3503 33.08 98.797 31.2667 97.6903 29.96C96.597 28.64 95.0103 27.98 92.9303 27.98C91.6636 27.98 90.5236 28.3 89.5103 28.94C88.497 29.5667 87.697 30.46 87.1103 31.62C86.537 32.78 86.2503 34.1267 86.2503 35.66C86.2503 37.1667 86.4903 38.4933 86.9703 39.64C87.4503 40.7733 88.157 41.6533 89.0903 42.28ZM89.7503 30.72C90.497 29.5867 91.517 29.02 92.8103 29.02C94.1303 29.02 95.1503 29.5867 95.8703 30.72C96.5903 31.84 96.9503 33.4067 96.9503 35.42C96.9503 37.5933 96.5703 39.26 95.8103 40.42C95.0636 41.58 94.0503 42.16 92.7703 42.16C91.4636 42.16 90.4436 41.58 89.7103 40.42C88.9903 39.2467 88.6303 37.66 88.6303 35.66C88.6303 33.4867 89.0036 31.84 89.7503 30.72ZM101.464 44.8C100.997 45.2533 100.471 45.5667 99.8839 45.74L100.424 46.58C101.491 46.3933 102.431 45.9533 103.244 45.26C104.057 44.5667 104.584 43.6867 104.824 42.62C104.917 42.1667 104.977 41.62 105.004 40.98C105.031 40.34 105.044 39.4933 105.044 38.44V37.5V29.4L106.864 29.14V28.14H100.984V29.14L102.904 29.4V38.28C102.904 39.68 102.877 40.72 102.824 41.4C102.771 42.0667 102.657 42.6533 102.484 43.16C102.271 43.8133 101.931 44.36 101.464 44.8ZM108.561 29.14L110.201 29.38V41.82L108.541 42.02V43H119.641L120.221 39.52L119.041 39.16L117.981 41.68L112.341 41.88V35.92L115.681 35.98L115.961 37.7H117.061V33.1H115.961L115.681 34.76L112.341 34.82V29.18L117.301 29.3L117.881 31.24H119.021L118.741 28.14H108.561V29.14ZM124.448 42.28C125.488 42.9067 126.742 43.22 128.208 43.22C128.875 43.22 129.428 43.1733 129.868 43.08C130.322 43 130.788 42.8867 131.268 42.74C131.815 42.5667 132.228 42.4733 132.508 42.46L132.988 39.62L131.728 39.46L130.888 41.42C130.622 41.6467 130.295 41.82 129.908 41.94C129.535 42.06 128.995 42.12 128.288 42.12C127.288 42.12 126.448 41.82 125.768 41.22C125.088 40.6067 124.582 39.7867 124.248 38.76C123.915 37.7333 123.748 36.5933 123.748 35.34C123.748 34.02 123.935 32.8867 124.308 31.94C124.695 30.9933 125.222 30.28 125.888 29.8C126.555 29.3067 127.315 29.06 128.168 29.06C128.835 29.06 129.395 29.12 129.848 29.24C130.315 29.3467 130.642 29.48 130.828 29.64L131.328 32.18H132.668L132.868 28.58L132.208 28.46C130.768 28.14 129.535 27.98 128.508 27.98C127.148 27.98 125.922 28.3 124.828 28.94C123.735 29.5667 122.875 30.4533 122.248 31.6C121.622 32.7467 121.308 34.0667 121.308 35.56C121.308 37.1067 121.575 38.4533 122.108 39.6C122.642 40.7467 123.422 41.64 124.448 42.28ZM136.075 29.32L139.515 29.2V41.82L136.915 42.02V43H144.555V42.02L141.715 41.82V29.2L145.175 29.32L145.835 33.5H147.095L146.855 28.14H134.395L134.055 33.5H135.375L136.075 29.32ZM153.249 29.14L154.889 29.38V41.82L153.229 42.02V43H155.889C156.089 43 156.709 43.02 157.749 43.06C158.189 43.1 158.649 43.12 159.129 43.12C161.329 43.12 162.902 42.6933 163.849 41.84C164.809 40.9867 165.289 39.8867 165.289 38.54C165.289 37.46 164.922 36.6067 164.189 35.98C163.455 35.3533 162.449 35.0533 161.169 35.08C162.115 34.9067 162.862 34.48 163.409 33.8C163.955 33.12 164.229 32.3067 164.229 31.36C164.229 30.2533 163.829 29.4133 163.029 28.84C162.242 28.2667 160.929 27.98 159.089 27.98C158.782 27.98 158.309 28.0067 157.669 28.06C156.975 28.1133 156.402 28.14 155.949 28.14H153.249V29.14ZM158.149 34.72C157.575 34.72 157.195 34.7133 157.009 34.7V29.14L157.429 29.1C157.935 29.0467 158.429 29.02 158.909 29.02C160.069 29.02 160.889 29.24 161.369 29.68C161.849 30.1067 162.089 30.7867 162.089 31.72C162.089 32.68 161.849 33.42 161.369 33.94C160.889 34.46 160.182 34.72 159.249 34.72H158.149ZM159.089 42.04C158.009 42.04 157.315 41.9867 157.009 41.88V35.92C157.369 35.8933 158.229 35.88 159.589 35.88C160.762 35.88 161.609 36.1133 162.129 36.58C162.662 37.0467 162.929 37.7933 162.929 38.82C162.929 39.86 162.622 40.66 162.009 41.22C161.409 41.7667 160.435 42.04 159.089 42.04ZM169.28 41.6C170.213 42.64 171.66 43.16 173.62 43.16C175.26 43.16 176.573 42.6467 177.56 41.62C178.547 40.5933 179.04 39.04 179.04 36.96V29.38L180.5 29.14V28.14H175.84V29.14L177.52 29.4V37.06C177.52 38.6867 177.213 39.9267 176.6 40.78C176 41.6333 175.093 42.06 173.88 42.06C172.667 42.06 171.733 41.66 171.08 40.86C170.44 40.06 170.12 38.7533 170.12 36.94V29.4L171.82 29.14V28.14H166.48V29.14L167.9 29.38V36.72C167.9 38.92 168.36 40.5467 169.28 41.6ZM181.825 29.14L183.385 29.38V41.82L181.725 42.02V43H184.465C184.865 43 185.465 43.0267 186.265 43.08C187.038 43.1333 187.585 43.16 187.905 43.16C189.358 43.16 190.645 42.82 191.765 42.14C192.885 41.46 193.751 40.5133 194.365 39.3C194.991 38.0733 195.305 36.6733 195.305 35.1C195.305 32.8467 194.698 31.1 193.485 29.86C192.285 28.6067 190.445 27.98 187.965 27.98C187.578 27.98 186.998 28.0067 186.225 28.06C185.451 28.1133 184.858 28.14 184.445 28.14H181.825V29.14ZM187.305 42.04C186.571 42.04 185.971 41.9867 185.505 41.88V29.2C185.678 29.2 185.878 29.18 186.105 29.14C186.638 29.0867 187.098 29.06 187.485 29.06C189.325 29.06 190.698 29.6067 191.605 30.7C192.525 31.7933 192.985 33.3933 192.985 35.5C192.985 36.9 192.771 38.0933 192.345 39.08C191.918 40.0533 191.318 40.7867 190.545 41.28C189.785 41.7733 188.905 42.0267 187.905 42.04H187.305ZM196.981 29.14L198.541 29.38V41.82L196.881 42.02V43H199.621C200.021 43 200.621 43.0267 201.421 43.08C202.194 43.1333 202.741 43.16 203.061 43.16C204.514 43.16 205.801 42.82 206.921 42.14C208.041 41.46 208.908 40.5133 209.521 39.3C210.148 38.0733 210.461 36.6733 210.461 35.1C210.461 32.8467 209.854 31.1 208.641 29.86C207.441 28.6067 205.601 27.98 203.121 27.98C202.734 27.98 202.154 28.0067 201.381 28.06C200.608 28.1133 200.014 28.14 199.601 28.14H196.981V29.14ZM202.461 42.04C201.728 42.04 201.128 41.9867 200.661 41.88V29.2C200.834 29.2 201.034 29.18 201.261 29.14C201.794 29.0867 202.254 29.06 202.641 29.06C204.481 29.06 205.854 29.6067 206.761 30.7C207.681 31.7933 208.141 33.3933 208.141 35.5C208.141 36.9 207.928 38.0933 207.501 39.08C207.074 40.0533 206.474 40.7867 205.701 41.28C204.941 41.7733 204.061 42.0267 203.061 42.04H202.461ZM212.077 29.4L216.577 37.22V41.82L214.397 42.02V43H221.037V42.02L218.797 41.8V37.2L222.977 29.38L224.277 29.14V28.14H219.717V29.14L221.357 29.38L218.697 34.74L217.977 36.26L217.337 34.74L214.517 29.38L216.097 29.14V28.14H210.877V29.14L212.077 29.4Z" fill="#EDF1F6"/>
</svg>
